<?xml version="1.0" encoding="utf-8"?>
<!-- Generator: Adobe Illustrator 15.0.2, SVG Export Plug-In . SVG Version: 6.00 Build 0)  -->
<!DOCTYPE svg PUBLIC "-//W3C//DTD SVG 1.1//EN" "http://www.w3.org/Graphics/SVG/1.1/DTD/svg11.dtd">
<svg version="1.1" id="Layer_1" xmlns="http://www.w3.org/2000/svg" xmlns:xlink="http://www.w3.org/1999/xlink" x="0px" y="0px"
	 width="800px" height="800px" viewBox="0 0 800 800" enable-background="new 0 0 800 800" xml:space="preserve">
<g>
	<path fill="#008576" d="M72.012,77.059c4.95-0.37,9.74,1.12,14.68,1.06l0.78,0.57c9.12,0.46,18.05,2.6,27.11,3.59
		c7.29,1.54,14.65,2.8,22,4.01c11.33,2.18,22.68,4.52,34.14,5.86l0.78,0.55c25.68,3,51.32,6.41,77.06,8.64
		c10.09,1.08,20.35,2.51,30.47,0.8c12.13-1.13,23.63-5.4,35.489-7.93c4.73-0.71,9.4,0.41,14.07,1.05
		c4.93,1.43,10.01,2.24,15.021,3.34c5.35,0.75,10.93-0.09,15.85-2.28c18.87-6.37,38.55-11.3,58.61-10.64
		c4.96-1.36,9.92,0.42,14.938,0.05c15.37-0.15,30.62,1.63,45.94,2.51c5.01,1.03,10.18,0.41,15.188,1.479
		c7.66,0.1,15.2,1.48,22.881,1.36c12.221,1.56,24.601,0.57,36.869,1.16c5.392,1.04,10.95,0.22,16.32,1.36
		c15.38,1.36,30.49,4.77,45.4,8.68c6.33,2.14,12.76,4.02,19.01,6.41c0.49,0.14,1.49,0.42,1.99,0.56
		c9.028,3.92,18.38,7.25,26.92,12.22c19.33,10.31,37.45,22.92,53.92,37.37c2.06,2.021,4.59,3.771,5.52,6.66
		c0.432,2.38,1.08,4.72,1.49,7.11l0.521,0.84c0.181,1.73,0.329,3.49,0.921,5.14c1.96,13.64,1.68,27.55-1.012,41.08
		c-1.778,7.85-4.35,15.48-7.02,23.06c-11.03,26.08-28.101,49.24-47.79,69.42c-4.95,6.35-11.4,11.23-17.15,16.79
		c-10.6,9.04-22.278,16.67-33.88,24.34c-21.51,13.31-40.66,30.39-63.569,41.43c-7.381,3.68-15.101,6.602-22.881,9.3
		c-0.52,0.11-1.56,0.341-2.078,0.46l-0.802,0.561c-5.398,1.221-10.68,2.939-16.148,3.921c-19.892,3.739-40.41,3.159-60.21-0.9
		l-0.82-0.6c-1.061-0.11-2.12-0.22-3.18-0.32l-0.79-0.67c-1.08-0.12-2.15-0.229-3.222-0.34l-0.8-0.591
		c-3.108-0.811-6.148-1.84-9.14-3.01c-0.49-0.131-1.471-0.391-1.96-0.529c-19.03-7.92-36.42-19.63-51.37-33.79
		c-6.72-5.29-11.99-12.06-17.89-18.18c-17.23-19.52-32.25-41.13-43.48-64.65c-5.05-10.75-10.3-21.81-11.14-33.84l-0.551-0.77
		c-0.079-10.22-2.09-20.45-0.43-30.64c0.16-13.87,0.04-28.02-3.97-41.42c-3.37-10.4-10.1-20.92-21.16-24.14
		c-1.39-0.29-2.78-0.59-4.12-1.04c-3.86-0.44-7.76-0.39-11.62-0.02c-6.96,1.2-12.51,5.98-16.45,11.59
		c-7.7,12.54-6.96,27.87-6.98,42.03c0.32,18.65-4.92,36.78-9.8,54.62c-0.18,1.01-0.34,2.03-0.5,3.05l-0.53,0.81
		c-2.49,10.66-3.51,21.55-4.15,32.44c0.13,8.33-0.5,16.74,0.69,25.02c0.34,4.48,0,9,0.65,13.46c0.93,4.63,0.19,9.43,1.17,14.06
		c1.23,19.65,2.73,39.54-0.22,59.1c-0.29,2.33-0.41,4.69-0.96,6.98c-1.02,8.479-3.4,16.71-4.68,25.14l-0.5,0.82
		c-0.49,2.72-1.19,5.41-1.5,8.17l-0.5,0.84c-0.49,2.721-1.19,5.41-1.5,8.17l-0.56,0.83c-0.16,1.34-0.32,2.681-0.5,4.03
		c-0.58,1.99-0.85,4.04-1.36,6.05c-0.33,2.63-0.32,5.311-0.72,7.94c-1.06,4.278,0.52,8.55,0.65,12.85
		c3.3,14.479,15.13,25.93,29.16,30.229c2,0.591,4,1.199,6.08,1.5l0.83,0.521c12.6,2.14,25.52,1.55,38.02-1.04l0.82-0.5
		c4.18-0.62,8.07-2.33,12.09-3.54c2.73-0.99,5.41-2.09,7.99-3.43c0.5-0.13,1.5-0.4,2.01-0.54c2.011-0.78,4.04-1.54,6.011-2.45
		c0.489-0.14,1.479-0.42,1.979-0.57c3.94-1.488,7.97-2.729,11.98-4.05c4.01-1.1,8.02-2.27,12.13-2.95l0.8-0.52
		c7.87-0.71,15.8-2.96,23.68-1.47c10.47,0.59,21.24,5.67,26.87,14.8c1.352,3.37,2.021,7.34-0.02,10.6
		c-3.812,6.86-11,10.79-17.801,14.16c-6.979,2.979-14.13,5.74-21.569,7.3l-0.811,0.5c-4.04,0.562-8.02,1.431-12.1,1.63
		c-6.97,0.99-13.99,1.762-20.94,2.932c-2.699,0.659-5.439,1.18-8.13,1.858l-0.819,0.521c-8.74,1.81-16.511,6.47-24.28,10.648
		c-15.02,8.642-28.65,19.4-43.15,28.841c-16.86,11.061-34.93,20.149-53.69,27.5c-0.49,0.149-1.48,0.449-1.98,0.601
		c-1.03,0.34-2.06,0.66-3.09,0.97l-0.82,0.471c-3.78,0.67-7.43,1.939-11.22,2.551l-0.79,0.55c-1.06,0.1-2.12,0.22-3.18,0.34
		l-0.82,0.561c-9.91,2.141-20.34,4.909-28.08,11.83c-3.5,2.67-6.49,6.38-7.14,10.841c1.82,7.14,9.79,10.06,16.23,11.55l0.82,0.52
		c4.62,1.23,9.36,1.9,14.05,2.812c13.9,1.67,27.89,2.12,41.76,4.029c21.25,1.931,42.41,5.141,63.78,5.569
		c8.93,1.13,18,0.63,26.98,0.48c5.409-1.04,10.979-0.28,16.38-1.312c33.18-2.47,66.18-7.489,99.52-7.68c4-0.69,8.07-0.75,12.12-0.51
		c7.87,1.289,15.97,0.028,23.83,1.568c4.95,0.4,9.76,1.71,14.65,2.551c9.528,2.899,19.09,6.279,27.3,12.051
		c8.34,6.22,14.99,14.648,19.08,24.22c0.35,3.72,1.35,8.021-1.03,11.29c-1.85,2.521-5.24,2.689-8.05,3.229
		c-14.32-1.359-27.312-8.04-40.352-13.58c-3.64-1.729-7.278-3.489-11.188-4.511l-0.84-0.47c-6.682-1.72-13.352-3.47-20.102-4.851
		c-1.688-0.311-3.38-0.579-5.02-1.011c-5.66-0.93-11.28-2.27-17.021-2.528l-0.778-0.57c-9.2-0.6-18.29-2.28-27.521-2.38
		c-9.99-1.4-20.11-0.75-30.16-1.07c-5.229-0.88-10.62-0.85-15.85,0c-11.33,0.15-22.68,0.09-34.01,0.49
		c-8.57,1.319-17.34,0.09-25.91,1.51c-10.89,0.021-21.67,1.471-32.57,1.45l-0.91,0.6c-4.48,0.11-8.98,0.062-13.44,0.5
		c-5.5,1.091-11.17,0.222-16.67,1.262c-4.61,0.659-9.3,0.13-13.9,0.829c-5.32,0.971-10.8,0.171-16.12,1.181
		c-5.29,0.71-10.69,0.05-15.97,1c-4.73,0.62-9.53,0.2-14.28,0.729c-6.73,1.19-13.64,0.142-20.36,1.352
		c-7.6,0.62-15.29-0.09-22.85,1.1c-9.69,0.23-19.39,0.33-29.08,0.471c-3.3,0.569-6.64,0.721-9.99,0.579
		c-0.02-16.42,0-32.84-0.01-49.25c1.49-0.39,2.96-0.8,4.45-1.18c10.74-4,19.54-11.7,28.2-18.979
		c6.95-6.699,13.89-13.439,20.36-20.601c8.61-9.5,14.29-22.05,13.92-35.021c0.19-5.21-0.65-10.359-1.68-15.439
		c-2.83-14.88-8.65-29.03-11.05-44.01c-2.45-13.04-1.38-26.4-1.15-39.59c1.21-6.261,0.39-12.7,1.54-18.961
		c0.35-8.391,0.49-16.8,0.14-25.199c-0.73-5.86-1.44-12.21-5.48-16.86c-5.54-6.858-14.71-9.29-23.15-9.81
		c-8.69,0-17.48-0.41-26.09,1.039c-0.01-12.679-0.02-25.359,0.01-38.029c6.55-1.95,13.01-4.22,19.42-6.57
		c10.03-3.11,18.13-10.4,25-18.06c6.71-7.3,8.04-17.54,8.7-27.02c0.93-5.45,2.62-10.72,4.05-16.05c1.37-2.91,2.21-6.02,3.4-9
		c0.14-0.5,0.42-1.49,0.56-1.99c1.43-2.91,2.34-6.02,3.44-9.05c3.08-8.41,5.37-17.06,6.6-25.93c1.66-6.73,3.45-13.42,5.37-20.08
		c2.9-10.32,4.48-21.14,2.87-31.81c-0.83-5.24-3.53-10.1-7.36-13.75c-5.91-5.08-13.08-8.61-18.4-14.39
		c-7.78-8.17-13.02-18.33-20.38-26.84c-7.75-10.04-19.92-15.43-32.1-17.82c-0.27-0.229-0.82-0.689-1.1-0.92
		C71.892,115.009,72.082,96.029,72.012,77.059 M482.932,117.169c-9.938,2.95-20.818,6.11-27.67,14.44c-1.68,1.8-1.05,4.44-1.27,6.66
		c2.18,2.86,5.06,5.21,8.62,6.06c8.948,3.41,18.37-0.07,27.5-0.23c3.58,0.44,7.08,1.36,10.608,2.11l0.801,0.47
		c1.061,0.31,2.119,0.65,3.181,1.02c0.479,0.14,1.43,0.43,1.91,0.57c14.26,5.52,27.698,12.83,40.76,20.71
		c9.688,5.24,18.688,11.93,29.27,15.34c8.602,3.84,18.78,7.13,23.352,16.16c2.47,9.54,1.188,19.54-0.08,29.17
		c-0.43,1.33-0.75,2.69-1.05,4.05c-4.051,12.2-12.472,22.08-19.2,32.81c-2.101,3.6-4.26,7.18-6.812,10.48
		c-3.81,5.11-11.05,5.74-16.85,4.54c-5.38-0.08-10.67-1.061-16.03-1.4c-7.83-1.2-16.29-2.98-21.909-9.04
		c-4.381-4.06-5.859-10.04-7.449-15.56c-2.62-1.82-5.95-1.47-8.91-0.89c-7.65,3.06-13.18,9.48-19.66,14.32
		c-7.14,5.53-14.63,10.69-20.72,17.43c-4.66,3.97-6.92,9.73-8.892,15.34c-0.13,0.5-0.38,1.49-0.5,1.99
		c-2.3,5.76-6.34,11.01-12.278,13.32c-5.65,1.96-11.62,1.12-17.25-0.39c-5.392-1.34-10.812-2.74-16.37-3.16
		c-7.13-0.09-14.891,3.31-17.75,10.23c-1.38,3.56-0.82,7.24,0.13,10.82c1.4,2.86,2.61,5.93,4.92,8.22
		c10.15,11.28,24.2,17.99,38.29,22.96c0.52,0.11,1.57,0.32,2.09,0.43l0.812,0.55c6,1.73,11.979,3.75,18.21,4.5l0.84,0.54
		c5.81,0.72,11.54,2.26,17.42,2.29c6.21,0.12,12.43,0.11,18.62-0.32l0.77-0.55c8.98-0.68,17.562-3.65,26.05-6.47
		c2.03-0.72,4.062-1.45,6.021-2.36c28.99-11.33,54.99-28.75,81.939-44.08c7.131-3.81,14.091-8.14,19.83-13.91
		c1.649-1.72,3.75-2.92,5.359-4.7c5.43-7.1,12.72-12.51,18.26-19.53c9.71-11.59,18.801-23.87,25.71-37.35
		c5.171-5.18,9.82-11.16,12.08-18.21c1.83-6.09,2.92-12.59,1.65-18.899c-2.021-16.33-11.41-30.64-22.13-42.67
		c-10.932-11.73-24.2-21.77-39.71-26.45c-0.521-0.11-1.57-0.33-2.091-0.44l-0.771-0.67c-0.56-0.07-1.67-0.22-2.22-0.3l-0.79-0.57
		c-1.062-0.31-2.11-0.64-3.141-1c-0.521-0.12-1.551-0.36-2.069-0.48l-0.79-0.53c-2.74-0.78-5.42-1.75-8.12-2.62
		c-7.4-2.84-14.38-6.71-22-9c-12.78-5-26.45-7.45-40-9.26c-4.78-0.6-9.63-0.22-14.38-1.09
		C513.582,112.149,497.982,113.309,482.932,117.169 M455.132,190.869c0.04,0.66,0.11,1.98,0.15,2.64
		c1.229,2.43,2.568,4.88,4.71,6.65c9.729,8.48,21.568,14.11,33.608,18.51c5.432,1.78,11.04,3.5,16.83,3.23
		c2.182-0.81,3.66-2.5,4.352-4.71c-1.472-5.77-5.96-9.94-10.261-13.73c-9.039-7.23-19.159-13.13-30.091-17
		c-0.51-0.09-1.55-0.26-2.06-0.35l-0.83-0.71C465.812,184.689,458.002,184.869,455.132,190.869L455.132,190.869z"/>
</g>
</svg>
